<svg width="48" height="48" viewBox="0 0 48 48" fill="none" xmlns="http://www.w3.org/2000/svg">
<path fill-rule="evenodd" clip-rule="evenodd" d="M33 42V33H36V42C36 42.7957 35.6839 43.5587 35.1213 44.1213C34.5587 44.6839 33.7956 45 33 45H9C8.20435 45 7.44129 44.6839 6.87868 44.1213C6.31607 43.5587 6 42.7957 6 42V6C6 5.20435 6.31607 4.44129 6.87868 3.87868C7.44129 3.31607 8.20435 3 9 3H24V6H9V42H33ZM39.36 3.68972L44.31 8.63972H44.295C44.7347 9.08835 44.9811 9.69151 44.9811 10.3197C44.9811 10.9479 44.7347 11.5511 44.295 11.9997L23.295 32.9997H15V24.6897L36 3.68972C36.4486 3.24997 37.0518 3.00366 37.68 3.00366C38.3082 3.00366 38.9114 3.24997 39.36 3.68972ZM18 29.9997H22.05L36.225 15.8397L32.16 11.7747L18 25.9497V29.9997ZM34.275 9.65972L38.34 13.7247L41.745 10.3197L37.68 6.25472L34.275 9.65972Z" fill="#614CE1"/>
<path fill-rule="evenodd" clip-rule="evenodd" d="M33 42V33H36V42C36 42.7957 35.6839 43.5587 35.1213 44.1213C34.5587 44.6839 33.7956 45 33 45H9C8.20435 45 7.44129 44.6839 6.87868 44.1213C6.31607 43.5587 6 42.7957 6 42V6C6 5.20435 6.31607 4.44129 6.87868 3.87868C7.44129 3.31607 8.20435 3 9 3H24V6H9V42H33ZM39.36 3.68972L44.31 8.63972H44.295C44.7347 9.08835 44.9811 9.69151 44.9811 10.3197C44.9811 10.9479 44.7347 11.5511 44.295 11.9997L23.295 32.9997H15V24.6897L36 3.68972C36.4486 3.24997 37.0518 3.00366 37.68 3.00366C38.3082 3.00366 38.9114 3.24997 39.36 3.68972ZM18 29.9997H22.05L36.225 15.8397L32.16 11.7747L18 25.9497V29.9997ZM34.275 9.65972L38.34 13.7247L41.745 10.3197L37.68 6.25472L34.275 9.65972Z" fill="white" fill-opacity="0.4"/>
</svg>
