<svg width="48" height="48" viewBox="0 0 48 48" fill="none" xmlns="http://www.w3.org/2000/svg">
<path fill-rule="evenodd" clip-rule="evenodd" d="M23.2889 26.82C23.5073 26.9381 23.7517 27 24 27C24.2483 27 24.4928 26.9381 24.7112 26.82L44.2112 16.32C44.4496 16.1915 44.6487 16.001 44.7876 15.7685C44.9264 15.536 44.9997 15.2702 44.9997 14.9995C44.9997 14.7287 44.9264 14.4629 44.7876 14.2304C44.6487 13.9979 44.4496 13.8074 44.2112 13.6789L24.7112 3.17893C24.4927 3.06101 24.2483 2.99927 24 2.99927C23.7517 2.99927 23.5074 3.06101 23.2889 3.17893L3.78888 13.6789C3.55049 13.8074 3.35132 13.9979 3.21249 14.2304C3.07367 14.4629 3.00037 14.7287 3.00037 14.9995C3.00037 15.2702 3.07367 15.536 3.21249 15.7685C3.35132 16.001 3.55049 16.1915 3.78888 16.32L23.2889 26.82ZM24 23.7964L7.66413 15L24 6.20368L40.3359 15L24 23.7964ZM24 36.0002C23.7517 36.0002 23.5072 35.9383 23.2888 35.8202L3.78882 25.3202L5.21112 22.6802L24 32.7966L42.7888 22.6802L44.2111 25.3212L24.7111 35.8212C24.4926 35.939 24.2482 36.0005 24 36.0002ZM24 45.0002C23.7517 45.0002 23.5072 44.9383 23.2888 44.8202L3.78882 34.3202L5.21112 31.6802L24 41.7966L42.7888 31.6802L44.2111 34.3212L24.7111 44.8212C24.4926 44.939 24.2482 45.0005 24 45.0002Z" fill="#614CE1"/>
<path fill-rule="evenodd" clip-rule="evenodd" d="M23.2889 26.82C23.5073 26.9381 23.7517 27 24 27C24.2483 27 24.4928 26.9381 24.7112 26.82L44.2112 16.32C44.4496 16.1915 44.6487 16.001 44.7876 15.7685C44.9264 15.536 44.9997 15.2702 44.9997 14.9995C44.9997 14.7287 44.9264 14.4629 44.7876 14.2304C44.6487 13.9979 44.4496 13.8074 44.2112 13.6789L24.7112 3.17893C24.4927 3.06101 24.2483 2.99927 24 2.99927C23.7517 2.99927 23.5074 3.06101 23.2889 3.17893L3.78888 13.6789C3.55049 13.8074 3.35132 13.9979 3.21249 14.2304C3.07367 14.4629 3.00037 14.7287 3.00037 14.9995C3.00037 15.2702 3.07367 15.536 3.21249 15.7685C3.35132 16.001 3.55049 16.1915 3.78888 16.32L23.2889 26.82ZM24 23.7964L7.66413 15L24 6.20368L40.3359 15L24 23.7964ZM24 36.0002C23.7517 36.0002 23.5072 35.9383 23.2888 35.8202L3.78882 25.3202L5.21112 22.6802L24 32.7966L42.7888 22.6802L44.2111 25.3212L24.7111 35.8212C24.4926 35.939 24.2482 36.0005 24 36.0002ZM24 45.0002C23.7517 45.0002 23.5072 44.9383 23.2888 44.8202L3.78882 34.3202L5.21112 31.6802L24 41.7966L42.7888 31.6802L44.2111 34.3212L24.7111 44.8212C24.4926 44.939 24.2482 45.0005 24 45.0002Z" fill="white" fill-opacity="0.2"/>
</svg>
