<svg width="48" height="48" viewBox="0 0 48 48" fill="none" xmlns="http://www.w3.org/2000/svg">
<path d="M38.0914 35.9999C38.9874 33.8492 39.2276 31.4815 38.7817 29.1947C38.3358 26.9079 37.2238 24.8039 35.5854 23.1473C36.0363 22.0116 36.1219 20.7635 35.8303 19.5768C35.5388 18.3902 34.8846 17.3239 33.9588 16.5263L38.1227 12.3625C38.6844 11.7994 38.9999 11.0364 38.9999 10.241C38.9999 9.4456 38.6844 8.68267 38.1227 8.11956L33.8804 3.87726C33.3173 3.31534 32.5544 2.99976 31.7589 2.99976C30.9634 2.99976 30.2005 3.31534 29.6375 3.87726L9.87885 23.6359C9.31715 24.199 9.00171 24.9619 9.00171 25.7573C9.00171 26.5527 9.31715 27.3156 9.87885 27.8788L14.1211 32.1211C14.6842 32.6829 15.4472 32.9984 16.2426 32.9984C17.038 32.9984 17.801 32.6829 18.364 32.1211L25.5264 24.958C26.542 26.1331 27.98 26.8604 29.5285 26.9819C31.0769 27.1033 32.6108 26.6093 33.7972 25.6069C35.0303 27.0177 35.7876 28.7811 35.9615 30.6468C36.1355 32.5124 35.7173 34.3855 34.7663 35.9999H24V41.9999H6V44.9999H42V35.9999H38.0914ZM16.2422 29.9999L12 25.757L14.8181 22.9394L19.0605 27.1816L16.2422 29.9999ZM24 20.9999C24.0022 21.3789 24.0405 21.7568 24.1143 22.1285L21.1817 25.0604L16.939 20.8183L31.7591 5.99826L36.0015 10.2406L31.1283 15.1142C30.2604 14.9417 29.3649 14.9645 28.5069 15.1809C27.6488 15.3973 26.8496 15.8018 26.1673 16.3652C25.4849 16.9287 24.9364 17.6368 24.5616 18.4384C24.1867 19.2401 23.9949 20.115 24 20.9999ZM30 23.9999C29.4067 23.9999 28.8266 23.824 28.3333 23.4943C27.8399 23.1647 27.4554 22.6961 27.2284 22.148C27.0013 21.5998 26.9419 20.9966 27.0576 20.4146C27.1734 19.8327 27.4591 19.2982 27.8787 18.8786C28.2982 18.459 28.8328 18.1733 29.4147 18.0576C29.9967 17.9418 30.5999 18.0012 31.1481 18.2283C31.6962 18.4553 32.1648 18.8399 32.4944 19.3332C32.8241 19.8265 33 20.4066 33 20.9999C32.9991 21.7953 32.6827 22.5578 32.1203 23.1202C31.5579 23.6826 30.7954 23.999 30 23.9999ZM39 41.9999H27V38.9999H39V41.9999Z" fill="#614CE1"/>
<path d="M38.0914 35.9999C38.9874 33.8492 39.2276 31.4815 38.7817 29.1947C38.3358 26.9079 37.2238 24.8039 35.5854 23.1473C36.0363 22.0116 36.1219 20.7635 35.8303 19.5768C35.5388 18.3902 34.8846 17.3239 33.9588 16.5263L38.1227 12.3625C38.6844 11.7994 38.9999 11.0364 38.9999 10.241C38.9999 9.4456 38.6844 8.68267 38.1227 8.11956L33.8804 3.87726C33.3173 3.31534 32.5544 2.99976 31.7589 2.99976C30.9634 2.99976 30.2005 3.31534 29.6375 3.87726L9.87885 23.6359C9.31715 24.199 9.00171 24.9619 9.00171 25.7573C9.00171 26.5527 9.31715 27.3156 9.87885 27.8788L14.1211 32.1211C14.6842 32.6829 15.4472 32.9984 16.2426 32.9984C17.038 32.9984 17.801 32.6829 18.364 32.1211L25.5264 24.958C26.542 26.1331 27.98 26.8604 29.5285 26.9819C31.0769 27.1033 32.6108 26.6093 33.7972 25.6069C35.0303 27.0177 35.7876 28.7811 35.9615 30.6468C36.1355 32.5124 35.7173 34.3855 34.7663 35.9999H24V41.9999H6V44.9999H42V35.9999H38.0914ZM16.2422 29.9999L12 25.757L14.8181 22.9394L19.0605 27.1816L16.2422 29.9999ZM24 20.9999C24.0022 21.3789 24.0405 21.7568 24.1143 22.1285L21.1817 25.0604L16.939 20.8183L31.7591 5.99826L36.0015 10.2406L31.1283 15.1142C30.2604 14.9417 29.3649 14.9645 28.5069 15.1809C27.6488 15.3973 26.8496 15.8018 26.1673 16.3652C25.4849 16.9287 24.9364 17.6368 24.5616 18.4384C24.1867 19.2401 23.9949 20.115 24 20.9999ZM30 23.9999C29.4067 23.9999 28.8266 23.824 28.3333 23.4943C27.8399 23.1647 27.4554 22.6961 27.2284 22.148C27.0013 21.5998 26.9419 20.9966 27.0576 20.4146C27.1734 19.8327 27.4591 19.2982 27.8787 18.8786C28.2982 18.459 28.8328 18.1733 29.4147 18.0576C29.9967 17.9418 30.5999 18.0012 31.1481 18.2283C31.6962 18.4553 32.1648 18.8399 32.4944 19.3332C32.8241 19.8265 33 20.4066 33 20.9999C32.9991 21.7953 32.6827 22.5578 32.1203 23.1202C31.5579 23.6826 30.7954 23.999 30 23.9999ZM39 41.9999H27V38.9999H39V41.9999Z" fill="white" fill-opacity="0.2"/>
</svg>
