<svg width="48" height="48" viewBox="0 0 48 48" fill="none" xmlns="http://www.w3.org/2000/svg">
<path fill-rule="evenodd" clip-rule="evenodd" d="M24.945 44.8951C25.1217 44.9649 25.31 45.0005 25.5 45.0001C25.8383 44.9981 26.1661 44.8818 26.43 44.6701L33.93 38.6701C34.1068 38.5304 34.2498 38.3527 34.3485 38.1501C34.4472 37.9476 34.4989 37.7254 34.5 37.5001V26.1151L40.17 20.4601C41.7073 18.9313 42.9259 17.1126 43.755 15.1093C44.5841 13.1061 45.0073 10.9581 45 8.79009V6.00009C45 5.20444 44.6839 4.44138 44.1213 3.87877C43.5587 3.31616 42.7956 3.00009 42 3.00009H39.21C37.0419 2.99279 34.894 3.41596 32.8907 4.24508C30.8875 5.07419 29.0687 6.29275 27.54 7.83009L21.885 13.5001H10.5C10.2734 13.5029 10.0505 13.557 9.84785 13.6583C9.64521 13.7597 9.46816 13.9056 9.32998 14.0851L3.32998 21.5851C3.16256 21.7926 3.05346 22.0409 3.01391 22.3046C2.97436 22.5682 3.0058 22.8376 3.10498 23.0851C3.20294 23.3308 3.36416 23.5463 3.57227 23.7096C3.78038 23.873 4.02799 23.9783 4.28998 24.0151L14.79 25.5151L15.21 22.5151L7.30498 21.3901L11.22 16.5001H22.5C22.6974 16.5012 22.8931 16.4634 23.0758 16.3887C23.2586 16.3141 23.4248 16.2041 23.565 16.0651L29.67 9.96009C30.9194 8.70214 32.4059 7.70443 34.0434 7.0247C35.6809 6.34498 37.437 5.99672 39.21 6.00009H42V8.79009C42.0033 10.5631 41.6551 12.3191 40.9754 13.9567C40.2956 15.5942 39.2979 17.0807 38.04 18.3301L31.935 24.4351C31.796 24.5753 31.686 24.7415 31.6113 24.9242C31.5367 25.107 31.4988 25.3027 31.5 25.5001V36.7801L26.64 40.6951L25.515 32.7901L22.515 33.2101L24.015 43.7101C24.0517 43.9721 24.1571 44.2197 24.3204 44.4278C24.4838 44.6359 24.6992 44.7971 24.945 44.8951ZM10.9321 34.938L22.9282 22.9419L25.0495 25.0632L13.0534 37.0593L10.9321 34.938Z" fill="#614CE1"/>
<path fill-rule="evenodd" clip-rule="evenodd" d="M24.945 44.8951C25.1217 44.9649 25.31 45.0005 25.5 45.0001C25.8383 44.9981 26.1661 44.8818 26.43 44.6701L33.93 38.6701C34.1068 38.5304 34.2498 38.3527 34.3485 38.1501C34.4472 37.9476 34.4989 37.7254 34.5 37.5001V26.1151L40.17 20.4601C41.7073 18.9313 42.9259 17.1126 43.755 15.1093C44.5841 13.1061 45.0073 10.9581 45 8.79009V6.00009C45 5.20444 44.6839 4.44138 44.1213 3.87877C43.5587 3.31616 42.7956 3.00009 42 3.00009H39.21C37.0419 2.99279 34.894 3.41596 32.8907 4.24508C30.8875 5.07419 29.0687 6.29275 27.54 7.83009L21.885 13.5001H10.5C10.2734 13.5029 10.0505 13.557 9.84785 13.6583C9.64521 13.7597 9.46816 13.9056 9.32998 14.0851L3.32998 21.5851C3.16256 21.7926 3.05346 22.0409 3.01391 22.3046C2.97436 22.5682 3.0058 22.8376 3.10498 23.0851C3.20294 23.3308 3.36416 23.5463 3.57227 23.7096C3.78038 23.873 4.02799 23.9783 4.28998 24.0151L14.79 25.5151L15.21 22.5151L7.30498 21.3901L11.22 16.5001H22.5C22.6974 16.5012 22.8931 16.4634 23.0758 16.3887C23.2586 16.3141 23.4248 16.2041 23.565 16.0651L29.67 9.96009C30.9194 8.70214 32.4059 7.70443 34.0434 7.0247C35.6809 6.34498 37.437 5.99672 39.21 6.00009H42V8.79009C42.0033 10.5631 41.6551 12.3191 40.9754 13.9567C40.2956 15.5942 39.2979 17.0807 38.04 18.3301L31.935 24.4351C31.796 24.5753 31.686 24.7415 31.6113 24.9242C31.5367 25.107 31.4988 25.3027 31.5 25.5001V36.7801L26.64 40.6951L25.515 32.7901L22.515 33.2101L24.015 43.7101C24.0517 43.9721 24.1571 44.2197 24.3204 44.4278C24.4838 44.6359 24.6992 44.7971 24.945 44.8951ZM10.9321 34.938L22.9282 22.9419L25.0495 25.0632L13.0534 37.0593L10.9321 34.938Z" fill="white" fill-opacity="0.2"/>
</svg>
