<svg width="48" height="48" viewBox="0 0 48 48" fill="none" xmlns="http://www.w3.org/2000/svg">
<path fill-rule="evenodd" clip-rule="evenodd" d="M9 6H42C42.7957 6 43.5587 6.31607 44.1213 6.87868C44.6839 7.44129 45 8.20435 45 9V30C45 30.7956 44.6839 31.5587 44.1213 32.1213C43.5587 32.6839 42.7957 33 42 33H27V39H34.5V42H21V39H24V33H21V30H42V9H9V18H6V9C6 8.20435 6.31607 7.44129 6.87868 6.87868C7.44129 6.31607 8.20435 6 9 6ZM6 45H15C15.7956 45 16.5587 44.6839 17.1213 44.1213C17.6839 43.5587 18 42.7957 18 42V24C18 23.2044 17.6839 22.4413 17.1213 21.8787C16.5587 21.3161 15.7956 21 15 21H6C5.20435 21 4.44129 21.3161 3.87868 21.8787C3.31607 22.4413 3 23.2044 3 24V42C3 42.7957 3.31607 43.5587 3.87868 44.1213C4.44129 44.6839 5.20435 45 6 45ZM6 42V24H15V42H6Z" fill="#614CE1"/>
<path fill-rule="evenodd" clip-rule="evenodd" d="M9 6H42C42.7957 6 43.5587 6.31607 44.1213 6.87868C44.6839 7.44129 45 8.20435 45 9V30C45 30.7956 44.6839 31.5587 44.1213 32.1213C43.5587 32.6839 42.7957 33 42 33H27V39H34.5V42H21V39H24V33H21V30H42V9H9V18H6V9C6 8.20435 6.31607 7.44129 6.87868 6.87868C7.44129 6.31607 8.20435 6 9 6ZM6 45H15C15.7956 45 16.5587 44.6839 17.1213 44.1213C17.6839 43.5587 18 42.7957 18 42V24C18 23.2044 17.6839 22.4413 17.1213 21.8787C16.5587 21.3161 15.7956 21 15 21H6C5.20435 21 4.44129 21.3161 3.87868 21.8787C3.31607 22.4413 3 23.2044 3 24V42C3 42.7957 3.31607 43.5587 3.87868 44.1213C4.44129 44.6839 5.20435 45 6 45ZM6 42V24H15V42H6Z" fill="white" fill-opacity="0.2"/>
</svg>
