<svg width="48" height="45" viewBox="0 0 48 45" fill="none" xmlns="http://www.w3.org/2000/svg">
<path fill-rule="evenodd" clip-rule="evenodd" d="M10.17 12.0003H18V15.0003H6V3.0003H9V8.5203C11.5634 5.43433 15.0162 3.21408 18.8877 2.16231C22.7591 1.11054 26.8607 1.27844 30.6333 2.64311C34.4058 4.00778 37.6656 6.5028 39.9682 9.78796C42.2708 13.0731 43.5041 16.9885 43.5 21.0003H40.5C40.5002 17.4432 39.3509 13.9812 37.2234 11.1305C35.0958 8.27976 32.104 6.19289 28.6938 5.18098C25.2837 4.16906 21.6378 4.28629 18.2997 5.51517C14.9616 6.74405 12.11 9.01879 10.17 12.0003ZM37.83 30H30V27H42V39H39V33.48C36.4366 36.566 32.9838 38.7862 29.1123 39.838C25.2409 40.8898 21.1393 40.7219 17.3667 39.3572C13.5942 37.9925 10.3344 35.4975 8.0318 32.2123C5.7292 28.9272 4.49588 25.0118 4.50001 21H7.50001C7.49978 24.5571 8.6491 28.0191 10.7766 30.8698C12.9042 33.7206 15.896 35.8074 19.3062 36.8193C22.7163 37.8312 26.3622 37.714 29.7003 36.4851C33.0384 35.2563 35.89 32.9815 37.83 30Z" fill="#614CE1"/>
<path fill-rule="evenodd" clip-rule="evenodd" d="M10.17 12.0003H18V15.0003H6V3.0003H9V8.5203C11.5634 5.43433 15.0162 3.21408 18.8877 2.16231C22.7591 1.11054 26.8607 1.27844 30.6333 2.64311C34.4058 4.00778 37.6656 6.5028 39.9682 9.78796C42.2708 13.0731 43.5041 16.9885 43.5 21.0003H40.5C40.5002 17.4432 39.3509 13.9812 37.2234 11.1305C35.0958 8.27976 32.104 6.19289 28.6938 5.18098C25.2837 4.16906 21.6378 4.28629 18.2997 5.51517C14.9616 6.74405 12.11 9.01879 10.17 12.0003ZM37.83 30H30V27H42V39H39V33.48C36.4366 36.566 32.9838 38.7862 29.1123 39.838C25.2409 40.8898 21.1393 40.7219 17.3667 39.3572C13.5942 37.9925 10.3344 35.4975 8.0318 32.2123C5.7292 28.9272 4.49588 25.0118 4.50001 21H7.50001C7.49978 24.5571 8.6491 28.0191 10.7766 30.8698C12.9042 33.7206 15.896 35.8074 19.3062 36.8193C22.7163 37.8312 26.3622 37.714 29.7003 36.4851C33.0384 35.2563 35.89 32.9815 37.83 30Z" fill="white" fill-opacity="0.2"/>
</svg>
