<svg width="24" height="25" viewBox="0 0 24 25" fill="none" xmlns="http://www.w3.org/2000/svg">
<g clip-path="url(#clip0_1_278)">
<path fill-rule="evenodd" clip-rule="evenodd" d="M3 4.25H21C21.3977 4.2504 21.779 4.40856 22.0602 4.68978C22.3414 4.971 22.4996 5.3523 22.5 5.75V19.25C22.4996 19.6477 22.3414 20.029 22.0602 20.3102C21.779 20.5914 21.3977 20.7496 21 20.75H3C2.6023 20.7496 2.221 20.5914 1.93978 20.3102C1.65856 20.029 1.5004 19.6477 1.5 19.25V5.75C1.5004 5.3523 1.65856 4.971 1.93978 4.68978C2.221 4.40856 2.6023 4.2504 3 4.25ZM11.25 5.75H3V19.25H11.25V5.75ZM12.75 5.75V19.25H21V5.75H12.75ZM9.75 8H4.5V9.5H9.75V8ZM19.5 8H14.25V9.5H19.5V8ZM19.5 11.75H14.25V13.25H19.5V11.75ZM14.25 15.5H19.5V17H14.25V15.5ZM4.5 11.75H9.75V13.25H4.5V11.75ZM9.75 15.5H4.5V17H9.75V15.5Z" fill="#BCBFDB"/>
<path fill-rule="evenodd" clip-rule="evenodd" d="M3 4.25H21C21.3977 4.2504 21.779 4.40856 22.0602 4.68978C22.3414 4.971 22.4996 5.3523 22.5 5.75V19.25C22.4996 19.6477 22.3414 20.029 22.0602 20.3102C21.779 20.5914 21.3977 20.7496 21 20.75H3C2.6023 20.7496 2.221 20.5914 1.93978 20.3102C1.65856 20.029 1.5004 19.6477 1.5 19.25V5.75C1.5004 5.3523 1.65856 4.971 1.93978 4.68978C2.221 4.40856 2.6023 4.2504 3 4.25ZM11.25 5.75H3V19.25H11.25V5.75ZM12.75 5.75V19.25H21V5.75H12.75ZM9.75 8H4.5V9.5H9.75V8ZM19.5 8H14.25V9.5H19.5V8ZM19.5 11.75H14.25V13.25H19.5V11.75ZM14.25 15.5H19.5V17H14.25V15.5ZM4.5 11.75H9.75V13.25H4.5V11.75ZM9.75 15.5H4.5V17H9.75V15.5Z" fill="#614CE1" fill-opacity="0.8"/>
</g>
<defs>
<clipPath id="clip0_1_278">
<rect width="24" height="24" fill="white" transform="translate(0 0.5)"/>
</clipPath>
</defs>
</svg>
