<svg width="24" height="25" viewBox="0 0 24 25" fill="none" xmlns="http://www.w3.org/2000/svg">
<g clip-path="url(#clip0_1_181)">
<path fill-rule="evenodd" clip-rule="evenodd" d="M3 3.5H21C21.3978 3.5 21.7794 3.65804 22.0607 3.93934C22.342 4.22064 22.5 4.60218 22.5 5V20C22.5 20.3978 22.342 20.7794 22.0607 21.0607C21.7794 21.342 21.3978 21.5 21 21.5H3C2.60218 21.5 2.22064 21.342 1.93934 21.0607C1.65804 20.7794 1.5 20.3978 1.5 20V5C1.5 4.60218 1.65804 4.22064 1.93934 3.93934C2.22064 3.65804 2.60218 3.5 3 3.5ZM21 6.5V5H3V6.5H21ZM3 8V20H21V8H3ZM14.25 11H6V12.5H14.25V11ZM15.75 14.75H6V16.25H15.75V14.75Z" fill="#BCBFDB"/>
<path fill-rule="evenodd" clip-rule="evenodd" d="M3 3.5H21C21.3978 3.5 21.7794 3.65804 22.0607 3.93934C22.342 4.22064 22.5 4.60218 22.5 5V20C22.5 20.3978 22.342 20.7794 22.0607 21.0607C21.7794 21.342 21.3978 21.5 21 21.5H3C2.60218 21.5 2.22064 21.342 1.93934 21.0607C1.65804 20.7794 1.5 20.3978 1.5 20V5C1.5 4.60218 1.65804 4.22064 1.93934 3.93934C2.22064 3.65804 2.60218 3.5 3 3.5ZM21 6.5V5H3V6.5H21ZM3 8V20H21V8H3ZM14.25 11H6V12.5H14.25V11ZM15.75 14.75H6V16.25H15.75V14.75Z" fill="#614CE1" fill-opacity="0.8"/>
</g>
<defs>
<clipPath id="clip0_1_181">
<rect width="24" height="24" fill="white" transform="translate(0 0.5)"/>
</clipPath>
</defs>
</svg>
