<svg width="24" height="25" viewBox="0 0 24 25" fill="none" xmlns="http://www.w3.org/2000/svg">
<g clip-path="url(#clip0_1_1058)">
<path d="M21 9.5V8H16.5V3.5H15V8H9V3.5H7.5V8H3V9.5H7.5V15.5H3V17H7.5V21.5H9V17H15V21.5H16.5V17H21V15.5H16.5V9.5H21ZM15 15.5H9V9.5H15V15.5Z" fill="#BCBFDB"/>
<path d="M21 9.5V8H16.5V3.5H15V8H9V3.5H7.5V8H3V9.5H7.5V15.5H3V17H7.5V21.5H9V17H15V21.5H16.5V17H21V15.5H16.5V9.5H21ZM15 15.5H9V9.5H15V15.5Z" fill="#614CE1" fill-opacity="0.8"/>
</g>
<defs>
<clipPath id="clip0_1_1058">
<rect width="24" height="24" fill="white" transform="translate(0 0.5)"/>
</clipPath>
</defs>
</svg>
