<svg width="24" height="25" viewBox="0 0 24 25" fill="none" xmlns="http://www.w3.org/2000/svg">
<g clip-path="url(#clip0_1_237)">
<path fill-rule="evenodd" clip-rule="evenodd" d="M5.25 15.5037H6C6.39768 15.5041 6.77895 15.6623 7.06016 15.9435C7.34136 16.2247 7.49954 16.606 7.5 17.0037V18.5037C7.49954 18.9013 7.34136 19.2826 7.06016 19.5638C6.77895 19.845 6.39768 20.0032 6 20.0037H5.25V23.0037H3.75V20.0037H3C2.60232 20.0032 2.22105 19.845 1.93984 19.5638C1.65864 19.2826 1.50046 18.9013 1.5 18.5037V17.0037C1.50046 16.606 1.65864 16.2247 1.93984 15.9435C2.22105 15.6623 2.60232 15.5041 3 15.5037H3.75V2.00366H5.25V15.5037ZM3 18.5037H6V17.0037H3V18.5037ZM13.5 5.00366H12.75V2.00366H11.25V5.00366H10.5C10.1023 5.00404 9.72098 5.1622 9.43976 5.44342C9.15853 5.72464 9.00038 6.10595 9 6.50366V8.00366C9.00038 8.40137 9.15853 8.78268 9.43976 9.06391C9.72098 9.34513 10.1023 9.50328 10.5 9.50366H11.25V23.0037H12.75V9.50366H13.5C13.8977 9.50326 14.279 9.3451 14.5602 9.06388C14.8414 8.78267 14.9996 8.40136 15 8.00366V6.50366C14.9996 6.10596 14.8414 5.72466 14.5602 5.44344C14.279 5.16222 13.8977 5.00406 13.5 5.00366ZM13.5 8.00366H10.5V6.50366H13.5V8.00366ZM21 11.0037H20.25V2.00366H18.75V11.0037H18C17.6023 11.004 17.221 11.1622 16.9398 11.4434C16.6585 11.7246 16.5004 12.106 16.5 12.5037V14.0037C16.5005 14.4013 16.6586 14.7826 16.9398 15.0638C17.221 15.345 17.6023 15.5032 18 15.5037H18.75V23.0037H20.25V15.5037H21C21.3977 15.5031 21.7789 15.3449 22.0601 15.0637C22.3413 14.7825 22.4995 14.4013 22.5 14.0037V12.5037C22.4995 12.106 22.3414 11.7247 22.0602 11.4435C21.7789 11.1623 21.3977 11.0041 21 11.0037ZM21 14.0037H18V12.5037H21V14.0037Z" fill="#BCBFDB"/>
<path fill-rule="evenodd" clip-rule="evenodd" d="M5.25 15.5037H6C6.39768 15.5041 6.77895 15.6623 7.06016 15.9435C7.34136 16.2247 7.49954 16.606 7.5 17.0037V18.5037C7.49954 18.9013 7.34136 19.2826 7.06016 19.5638C6.77895 19.845 6.39768 20.0032 6 20.0037H5.25V23.0037H3.75V20.0037H3C2.60232 20.0032 2.22105 19.845 1.93984 19.5638C1.65864 19.2826 1.50046 18.9013 1.5 18.5037V17.0037C1.50046 16.606 1.65864 16.2247 1.93984 15.9435C2.22105 15.6623 2.60232 15.5041 3 15.5037H3.75V2.00366H5.25V15.5037ZM3 18.5037H6V17.0037H3V18.5037ZM13.5 5.00366H12.75V2.00366H11.25V5.00366H10.5C10.1023 5.00404 9.72098 5.1622 9.43976 5.44342C9.15853 5.72464 9.00038 6.10595 9 6.50366V8.00366C9.00038 8.40137 9.15853 8.78268 9.43976 9.06391C9.72098 9.34513 10.1023 9.50328 10.5 9.50366H11.25V23.0037H12.75V9.50366H13.5C13.8977 9.50326 14.279 9.3451 14.5602 9.06388C14.8414 8.78267 14.9996 8.40136 15 8.00366V6.50366C14.9996 6.10596 14.8414 5.72466 14.5602 5.44344C14.279 5.16222 13.8977 5.00406 13.5 5.00366ZM13.5 8.00366H10.5V6.50366H13.5V8.00366ZM21 11.0037H20.25V2.00366H18.75V11.0037H18C17.6023 11.004 17.221 11.1622 16.9398 11.4434C16.6585 11.7246 16.5004 12.106 16.5 12.5037V14.0037C16.5005 14.4013 16.6586 14.7826 16.9398 15.0638C17.221 15.345 17.6023 15.5032 18 15.5037H18.75V23.0037H20.25V15.5037H21C21.3977 15.5031 21.7789 15.3449 22.0601 15.0637C22.3413 14.7825 22.4995 14.4013 22.5 14.0037V12.5037C22.4995 12.106 22.3414 11.7247 22.0602 11.4435C21.7789 11.1623 21.3977 11.0041 21 11.0037ZM21 14.0037H18V12.5037H21V14.0037Z" fill="#614CE1" fill-opacity="0.8"/>
</g>
<defs>
<clipPath id="clip0_1_237">
<rect width="24" height="24" fill="white" transform="translate(0 0.5)"/>
</clipPath>
</defs>
</svg>
