<svg width="24" height="25" viewBox="0 0 24 25" fill="none" xmlns="http://www.w3.org/2000/svg">
<g clip-path="url(#clip0_1_516)">
<path fill-rule="evenodd" clip-rule="evenodd" d="M9.31388 19.6128L13.2292 5.00073L14.6781 5.38896L10.7628 20.001L9.31388 19.6128ZM0.75 12.5L6 7.25003L7.0575 8.30753L2.8725 12.5L7.0575 16.6925L6 17.75L0.75 12.5ZM23.25 12.5L18 17.75L16.9425 16.6925L21.1275 12.5L16.9425 8.30753L18 7.25003L23.25 12.5Z" fill="#BCBFDB"/>
<path fill-rule="evenodd" clip-rule="evenodd" d="M9.31388 19.6128L13.2292 5.00073L14.6781 5.38896L10.7628 20.001L9.31388 19.6128ZM0.75 12.5L6 7.25003L7.0575 8.30753L2.8725 12.5L7.0575 16.6925L6 17.75L0.75 12.5ZM23.25 12.5L18 17.75L16.9425 16.6925L21.1275 12.5L16.9425 8.30753L18 7.25003L23.25 12.5Z" fill="#614CE1" fill-opacity="0.8"/>
</g>
<defs>
<clipPath id="clip0_1_516">
<rect width="24" height="24" fill="white" transform="translate(0 0.5)"/>
</clipPath>
</defs>
</svg>
