<svg width="24" height="25" viewBox="0 0 24 25" fill="none" xmlns="http://www.w3.org/2000/svg">
<path d="M20.5425 10.865H12.1575V14.3375H16.9875C16.5375 16.55 14.655 17.8175 12.1575 17.8175C10.7472 17.8175 9.39469 17.2573 8.39746 16.2601C7.40024 15.2628 6.84 13.9103 6.84 12.5C6.84 11.0897 7.40024 9.73721 8.39746 8.73998C9.39469 7.74276 10.7472 7.18252 12.1575 7.18252C13.366 7.18422 14.5368 7.60277 15.4725 8.36752L18.09 5.75002C16.9972 4.78627 15.6867 4.10224 14.2712 3.75674C12.8557 3.41123 11.3775 3.41456 9.96353 3.76645C8.54959 4.11834 7.24223 4.80827 6.15378 5.77694C5.06534 6.74562 4.22835 7.96408 3.71475 9.32763C3.20115 10.6912 3.02628 12.159 3.20518 13.6051C3.38409 15.0511 3.9114 16.4321 4.74183 17.6294C5.57225 18.8267 6.68095 19.8044 7.97265 20.4786C9.26435 21.1528 10.7004 21.5033 12.1575 21.5C16.6575 21.5 20.745 18.23 20.745 12.5C20.7406 11.9491 20.6726 11.4004 20.5425 10.865Z" fill="#BCBFDB"/>
<path d="M20.5425 10.865H12.1575V14.3375H16.9875C16.5375 16.55 14.655 17.8175 12.1575 17.8175C10.7472 17.8175 9.39469 17.2573 8.39746 16.2601C7.40024 15.2628 6.84 13.9103 6.84 12.5C6.84 11.0897 7.40024 9.73721 8.39746 8.73998C9.39469 7.74276 10.7472 7.18252 12.1575 7.18252C13.366 7.18422 14.5368 7.60277 15.4725 8.36752L18.09 5.75002C16.9972 4.78627 15.6867 4.10224 14.2712 3.75674C12.8557 3.41123 11.3775 3.41456 9.96353 3.76645C8.54959 4.11834 7.24223 4.80827 6.15378 5.77694C5.06534 6.74562 4.22835 7.96408 3.71475 9.32763C3.20115 10.6912 3.02628 12.159 3.20518 13.6051C3.38409 15.0511 3.9114 16.4321 4.74183 17.6294C5.57225 18.8267 6.68095 19.8044 7.97265 20.4786C9.26435 21.1528 10.7004 21.5033 12.1575 21.5C16.6575 21.5 20.745 18.23 20.745 12.5C20.7406 11.9491 20.6726 11.4004 20.5425 10.865Z" fill="#614CE1" fill-opacity="0.8"/>
</svg>
